<?xml version="1.0" standalone="no"?>
<!DOCTYPE svg PUBLIC "-//W3C//DTD SVG 20010904//EN"
 "http://www.w3.org/TR/2001/REC-SVG-20010904/DTD/svg10.dtd">
<svg version="1.0" xmlns="http://www.w3.org/2000/svg"
 width="1024.000000pt" height="1024.000000pt" viewBox="0 0 1024.000000 1024.000000"
 preserveAspectRatio="xMidYMid meet">
<metadata>
Created by potrace 1.14, written by Peter Selinger 2001-2017
</metadata>
<g transform="translate(0.000000,1024.000000) scale(0.100000,-0.100000)"
fill="#000000" stroke="none">
<path d="M4422 7493 c-172 -229 -309 -420 -305 -424 11 -11 833 -362 837 -358
12 16 476 803 476 808 -1 8 -660 385 -679 388 -10 2 -127 -146 -329 -414z"/>
<path d="M5287 7078 c-135 -210 -244 -385 -242 -388 2 -4 133 -78 290 -166
187 -104 285 -164 285 -175 0 -8 -18 -105 -40 -214 -22 -109 -40 -200 -40
-202 0 -2 69 43 154 99 l153 103 277 398 c153 219 276 400 274 402 -16 13
-849 525 -856 525 -5 0 -119 -172 -255 -382z"/>
<path d="M3343 6208 c-313 -464 -573 -849 -577 -855 -4 -8 285 -433 755 -1110
419 -604 764 -1109 766 -1123 3 -20 -74 -672 -92 -772 l-4 -28 769 0 c572 0
770 3 770 11 0 22 -121 873 -125 879 -2 4 -70 13 -150 20 -235 21 -238 3 31
175 129 82 234 154 234 159 0 14 -1041 1610 -1064 1630 -11 10 -183 83 -381
161 l-360 143 60 27 c33 15 76 33 95 41 22 9 45 30 61 57 14 23 49 78 78 123
l51 80 -25 124 c-14 68 -24 124 -23 126 3 2 70 -59 344 -313 l101 -93 389 95
389 96 42 231 c24 127 41 233 39 235 -5 5 -1594 723 -1600 723 -1 0 -259 -379
-573 -842z"/>
<path d="M5850 5976 c-272 -409 -495 -747 -495 -751 0 -4 154 -81 342 -170
l342 -163 523 641 c288 352 528 648 535 657 10 14 -36 49 -357 268 -203 139
-375 254 -382 257 -8 3 -186 -255 -508 -739z"/>
<path d="M6972 5868 c-120 -145 -361 -436 -536 -648 -176 -212 -325 -392 -332
-400 -13 -16 3 -31 411 -392 l42 -37 564 505 c310 278 574 516 587 528 l23 22
-263 342 c-145 187 -266 341 -270 342 -5 0 -106 -118 -226 -262z"/>
<path d="M4998 5572 c-272 -79 -364 -110 -355 -118 33 -30 459 -265 467 -258
11 12 280 471 280 479 0 10 -28 3 -392 -103z"/>
<path d="M4952 5043 c8 -10 151 -184 318 -386 l302 -369 173 -459 173 -460 87
-94 86 -94 -142 -71 -141 -71 6 -37 c3 -20 6 -182 6 -359 l0 -323 364 0 363 0
6 108 c4 59 10 205 13 325 l7 218 234 285 c128 157 235 295 238 307 24 103
285 1400 283 1403 -2 2 -176 -150 -386 -337 l-383 -340 -147 140 c-81 76 -167
160 -192 186 -25 26 -89 87 -142 136 l-97 90 -512 110 c-282 60 -517 109 -522
109 -6 0 -3 -8 5 -17z"/>
</g>
</svg>
